<svg xmlns="http://www.w3.org/2000/svg" viewBox="0 0 497.45 497.44"><defs><style>.cls-1{fill:#91bee2;}.cls-2{fill:#365179;}.cls-3{fill:#9dec03;}.cls-4{fill:#04e04b;}.cls-5{fill:#050304;}.cls-6{fill:#ff8702;}.cls-7{fill:#fee101;}.cls-8{fill:#fff;}.cls-9{fill:#130d0f;}</style></defs><g id="Ebene_2" data-name="Ebene 2"><g id="Ebene_5" data-name="Ebene 5"><circle class="cls-1" cx="248.72" cy="248.72" r="248.72"/><path class="cls-2" d="M248.72,0a251.93,251.93,0,0,0-26.2,1.37C347.57,14.46,445,120.21,445,248.72S347.57,483,222.52,496.07a251.93,251.93,0,0,0,26.2,1.37c137.37,0,248.72-111.35,248.72-248.72S386.09,0,248.72,0Z"/><path class="cls-3" d="M250,111.48A129.08,129.08,0,0,0,314.18,8.72a250.16,250.16,0,0,0-128.5-.65A129.09,129.09,0,0,0,250,111.48Z"/><path class="cls-4" d="M335.45,162.63a144,144,0,0,0,132.65-31.2A249.79,249.79,0,0,0,366.83,29.78,144,144,0,0,0,335.45,162.63Z"/><path class="cls-3" d="M489.05,184.45a129.08,129.08,0,0,0-103.42,64.27A129.06,129.06,0,0,0,489.05,313a250.07,250.07,0,0,0,0-128.54Z"/><path class="cls-5" d="M294.08,388a99.27,99.27,0,0,0-4-17.66A83.76,83.76,0,0,1,222.52,381a84,84,0,0,0,51.75-40.84,99.83,99.83,0,0,0-35.48-29.5A97.3,97.3,0,0,0,196.73,301q-.21-98.12-.43-196.24a196.31,196.31,0,0,0-93.54,24.33,199.61,199.61,0,0,0-68.07,62.76A203.44,203.44,0,0,0,1.75,278.11C9,338.77,34.91,376.88,49.91,397.69c4.7,6.54,56.7,83,167.56,97.7,6.2.82,29.39-5.93,49.19-25.35a93.23,93.23,0,0,0,24.42-42.34,83.78,83.78,0,0,1-49,1.62A84,84,0,0,0,294.08,388Z"/><path class="cls-6" d="M393,301c0-57.24-30.68-105.31-30.68-105.31C324.21,135.76,266,117,251,112.37c-18-5.49-31.52-7.57-54.17-7.57-22.81,0-98.23,30.37-98.11,98.12.1,60.16,58.67,96.61,98.11,98.11a68.76,68.76,0,0,0,9.3-.27q25-1.72,51.3-2.55A1343.12,1343.12,0,0,1,393,301Z"/><path class="cls-7" d="M330.12,238.08c0,22.74-4,40.9-14.09,59.63l77,3.24c0-57.24-30.68-105.31-30.68-105.31C324.26,135.76,266,117,251,112.37c-18-5.49-31.52-7.57-54.17-7.57A133.28,133.28,0,0,1,330.12,238.08Z"/><path class="cls-8" d="M196.76,301c-55.16-2.11-98.08-47.09-98.17-98.09-.11-67.74,75.35-98.1,98.17-98.1Z"/><circle class="cls-9" cx="151.61" cy="176.64" r="29.79"/><path class="cls-5" d="M378.49,274.42a182.62,182.62,0,0,1-5.59,18.25c-1.27,3.44-2.44,5.42-3.31,7.46l23.48.86c0-17.08-3.91-36.42-3.91-36.42-5.12-22.95-7.83-28.89-12-39.09C381,246.92,380.8,264.51,378.49,274.42Z"/></g></g></svg>